<?xml version="1.0" encoding="utf-8"?>
<!-- Generator: Adobe Illustrator 24.2.1, SVG Export Plug-In . SVG Version: 6.00 Build 0)  -->
<svg version="1.1" id="레이어_1" xmlns="http://www.w3.org/2000/svg" xmlns:xlink="http://www.w3.org/1999/xlink" x="0px"
     y="0px" viewBox="0 0 931 141.6" style="enable-background:new 0 0 931 141.6;" xml:space="preserve">
<style type="text/css">
	.st0{fill:#F25E5E;}
	.st1{fill:none;}
</style>
    <g>
	<g id="XMLID_10_">
		<g>
			<g>
				<path class="st0" d="M108.1,135.6c-0.8,0-1.7-0.2-2.4-0.6c-2.6-1.4-3.6-4.5-2.2-7.1c4.5-8.5,5.5-16.2,3.1-22.8
					c-3.9-10.9-16-16.1-16.1-16.1c-2.7-1.1-4-4.2-2.8-6.9c1.1-2.7,4.2-4,6.9-2.9c0.7,0.3,16.4,6.9,22,22.2
					c3.5,9.5,2.2,20.1-3.7,31.4C111.8,134.5,110,135.6,108.1,135.6z"/>
			</g>
		</g>
	</g>
        <g id="XMLID_9_">
		<g>
			<g>
				<path class="st0" d="M82,61.9c-1.5,0-2.9-0.6-3.9-1.7c-1.3-1.4-1.7-3.4-1.1-5.1c3.6-11.2,10.7-23.2,19.5-32.9
					c9.5-10.5,19.6-16.8,28.4-17.7C133,3.6,140,7.3,144.5,15c2.9,5,3.2,10.3,1,15.3c-3.9,8.8-15.5,16.5-35.3,23.6
					c-13.9,5-26.6,7.7-27.1,7.8C82.7,61.9,82.3,61.9,82,61.9z M127.1,14.8c-0.4,0-0.8,0-1.2,0.1c-11.1,1.2-26.7,16.9-35.2,34.2
					c18.3-5,41-13.8,45.1-23c0.9-1.9,0.7-3.7-0.5-5.8C133.2,16.6,130.6,14.8,127.1,14.8z"/>
			</g>
		</g>
	</g>
        <g>
		<path class="st0" d="M57.7,91.9c0.1,6.8-10.6,6.8-10.5,0C47.1,85.1,57.8,85.1,57.7,91.9z"/>
	</g>
        <g>
		<path class="st1" d="M15.1,127.2c0.5,0,0.9,0,1.3-0.1c5.5-1.2,5.1-10.5-1.3-10.4c-0.8,0-1.5,0.1-2.1,0.4
			C8.3,119,9,127.3,15.1,127.2z"/>
            <path class="st1" d="M34,120.4c6.8,0.1,6.8-10.6,0-10.5C27.2,109.8,27.2,120.5,34,120.4z"/>
            <path class="st0" d="M147.3,0.6c-2.6-1.3-5.8-0.3-7.1,2.3s-0.3,5.8,2.3,7.1c12.5,6.4,18.4,17.5,16,30.5
			c-2.3,12.6-13,26.4-29.3,28.4c-1.8,0.2-3.4,1.4-4.1,3c-0.8,1.6-0.6,3.6,0.3,5.1c14.2,22-3.6,38-9.3,42.5
			c-18.7,14.3-49.6,17.6-67.1-1.9c-0.3-0.3-0.6-0.6-1-0.8c-5.3,14.3-33.1,24.7-40.5,9.8C2.3,116,13,105.1,24.9,100.9
			c2.6-3.2,5.4-6.6,8.3-10.1c24.5-29.9,41.7-52.2,39.4-67.9c-0.7-4.6-3-8.3-6.9-10.9c-0.8-0.5-1.8-0.9-2.7-0.9
			c-12.9-0.5-21.5,4-26.5,8c-6.5,5.1-10.8,12.4-11.6,19.9c-0.3,2.9,1.8,5.5,4.6,5.8c2.9,0.3,5.5-1.8,5.8-4.6
			c1-9.3,10.8-18.5,25.5-18.5c0.7,0.8,1.1,1.7,1.3,2.8c0.5,3.5-0.9,10.7-10.6,25.3C44.1,60.8,33.9,73.2,25,84.1
			C7.7,105.2-0.8,115.8,0.1,123.2c0.4,7.4,7.5,11.4,10.6,13.1c0.3,0.2,0.7,0.3,1,0.4c14.8,4.5,26.8-1.9,33.6-8.2
			c9.6,8.5,22.1,13,36,13c0.2,0,0.5,0,0.7,0c14.4-0.1,29.2-5.2,40.5-13.9c9-6.9,15.1-15.5,17.6-24.8c2.2-8.3,1.4-16.9-2.3-25.2
			c6.8-2.1,13-5.9,18.3-11.1c6.6-6.7,11.2-15.3,12.8-24.3C172.1,24.8,164,9.2,147.3,0.6z"/>
            <g>
			<path class="st0" d="M7.5,126.4c7.4,14.9,35.3,4.4,40.5-9.8c1.2-3.3,1.2-6.8-0.5-10.2c-3.9-7.9-13.7-8.6-22.7-5.5
				C13,105.1,2.3,116,7.5,126.4z M34,109.9c6.8-0.1,6.8,10.6,0,10.5C27.2,120.5,27.2,109.8,34,109.9z M15.1,116.7
				c6.4-0.1,6.8,9.2,1.3,10.4c-0.4,0.1-0.8,0.1-1.3,0.1c-6,0.1-6.7-8.2-2.1-10.1C13.5,116.8,14.3,116.7,15.1,116.7z"/>
		</g>
	</g>
</g>
    <path class="st1" d="M179.3,90.1c-2.5-0.8-4.5,3.5-6,7.9c4.2-0.2,8.4-0.4,12.5-0.6C183.8,93.6,181.5,90.7,179.3,90.1z"/>
    <path class="st0" d="M214,41.7c-12.7-7.5-30.1-5.5-38.1,7.8c-10.9,18-16.3,41.5-23.7,61.2c-5.8,15.5,19,22.2,24.8,6.8
	c1.9-4.9,3.7-9.9,5.6-14.8c5-0.2,10-0.5,15-0.7c4.1-0.2,8.3-0.4,12.5-0.6c1.4-0.1,2.8-0.1,4.1-0.2c2.4,0.4,3.8,0.4,4.1-0.1
	c0.3,0.3,0.6,0.5,1,0.8c0.1,3.7-0.4,6.8-1.9,8.7c-10.3,12.8,7.8,31.1,18.2,18.2c10.5-13.1,10.7-28,6.1-43.7
	C237.1,69.4,228.6,50.4,214,41.7z M191.8,76.5c2.4-6.9,5.6-13.5,9.4-12.3c3.3,1,7,5.5,10.1,11.3C204.8,75.9,198.3,76.2,191.8,76.5z"
    />
    <path class="st0" d="M291.2,44.3c4.1,9.9,7.2,19.9,9.5,30.1c-7.2-10-15.4-19-24.7-27c-1.5-1.3-3.1-2.2-4.8-2.7
	c-6.9-13.6-30.2-6.9-24.2,8c8.7,21.9,7.8,46,8.8,69.2c0.7,16.5,26.4,16.6,25.7,0c-0.4-10.6-0.6-21.3-1.2-32.1
	c0.6,0.8,1.1,1.6,1.7,2.4c6.2,9.4,10,20.1,16.6,29.3c2.1,2.9,4.7,4.5,7.5,5.2c5.2,9.7,23.8,7.6,24.4-6.4
	c1.3-28.5-3.5-56.6-14.5-82.9C309.8,22.4,284.9,29,291.2,44.3z"/>
    <path class="st0" d="M380.6,120.1c0-0.3-0.1-0.6-0.1-0.9c11.8,6.2,26.1,9.5,37.4,13.2c15.8,5.1,22.5-19.7,6.8-24.8
	c-8-2.6-16.1-5-24-7.9c-2.5-0.9-5-1.9-7.4-3.1c2-1.1,3.9-2.3,5.8-3.6c6.3-4.6,12.2-9.7,17.6-15.4c11.5-11.9-6.7-30.1-18.2-18.2
	c-7.3,7.6-15.3,13.5-24.3,18.7c-1.3-7-2.7-14.4-2-20.9c1.9-16.4-23.9-16.3-25.7,0c-1.2,10.1,2.3,21.6,3.8,31.6
	c1.8,12.7,3.7,25.4,5.5,38.1C358.2,143.2,383,136.3,380.6,120.1z"/>
    <path class="st0" d="M428.2,63c0.2,1.4,0.7,2.9,1.5,4.4c9.1,16.6,17,36.7,28.7,51.5c10,12.7,32.1,6.9,45.8,4.8
	c16.3-2.6,9.4-27.4-6.8-24.8c-5.6,0.9-14.4-0.4-20,1.2c-0.5-1.3-1.4-2.8-2.3-4.3c8.7-3.2,17.6-6.1,26.5-8.6
	c15.9-4.5,9.1-29.3-6.8-24.8c-11,3.1-21.8,6.8-32.5,10.9c-1.8-3.2-3.5-6.4-5.3-9.6c5.4-0.5,10.9-1,16.3-1.7
	c6.9-0.9,12.9-5.3,12.9-12.9c0-6.3-5.9-13.8-12.9-12.9c-12.7,1.6-25.4,2.6-38.1,2.9C421.5,39.5,419.2,57.2,428.2,63z"/>
    <path class="st0" d="M503,47.3c8.2-0.3,16.4-0.5,24.6-0.5c8.5,23.8,9.8,48.6,12.2,73.6c1.6,16.3,27.3,16.5,25.7,0
	c-2.4-24.9-3.6-50.1-11-74.1c1.3,0.1,2.5,0.2,3.6,0.3c7.6,6.6,23.6-0.4,21.2-13.6c-2.3-12.9-18.7-11.3-28.3-11.6
	c-16-0.5-32-0.4-48,0.2C486.5,22.2,486.4,47.9,503,47.3z"/>
    <path class="st0" d="M694.8,101.5c-5.5-0.7-19.7-1.7-27.4-4.1c3.1-16.4,11.2-31.7,11.5-48.8c0.3-16.6-25.5-16.6-25.7,0
	c-0.2,11.8-4.7,23.3-7.8,34.6c-2.3,8.2-7.2,19-2.9,27.4c7.7,14.8,38.3,14.7,52.3,16.6C711.2,129.4,711,103.7,694.8,101.5z"/>
    <path class="st0" d="M757.5,101.5c-3,1.1-5.9,2.1-8.9,3c-2.6-11.7-4-23.4-4.4-35.3c2.5,0,4.9,0.1,7.4,0.1c16.5,0,16.6-25.7,0-25.7
	c-12.5,0-25-0.4-37.4-1.3c-16.5-1.2-16.4,24.5,0,25.7c1.4,0.1,2.8,0.2,4.3,0.3c0.3,14.3,2.1,28.5,5.2,42.5c-0.6,0.1-1.3,0.3-1.9,0.4
	c-6.8,1.2-10.7,9.6-9,15.8c2,7.2,9,10.2,15.8,9c12.2-2.1,24.1-5.4,35.8-9.6c6.5-2.4,10.9-8.7,9-15.8
	C771.6,104.2,764,99.1,757.5,101.5z"/>
    <path class="st0" d="M806.9,78.6c-7,1.3-12.3,4.6-11.8-4c0.1-2.7,0.7-11.1,3.4-13.1c2.1-1.5,8.5,0.1,10.7,0.3
	c16.4,1.7,16.3-24,0-25.7c-12.4-1.3-26.1,0.3-33.4,11.7c-6.9,10.7-9.5,32.7-3.5,44.1c6.2,11.8,19.3,15.3,31.8,13.5
	c2.8-0.4,19.9-4.6,18.2-1.1c-1.3,2.7-16.4,3.9-19.2,4.7c-15.9,4.5-9.1,29.4,6.8,24.8c11.5-3.3,24.2-3.6,32.6-13.4
	c7.9-9.2,8-23,1-32.7C834.7,75.4,820.2,76.1,806.9,78.6z"/>
    <path class="st0" d="M915,22.5c-22.9,5.9-46,10.9-69.3,15c-16.3,2.9-9.4,27.7,6.8,24.8c5.4-1,10.9-2,16.3-3
	c5.8,18.6,9.4,37.5,10.5,57.1c0.9,16.5,26.7,16.6,25.7,0c-1.2-21.3-4.8-42.1-10.9-62.4c9.3-2.1,18.6-4.3,27.8-6.6
	C937.9,43.2,931.1,18.4,915,22.5z"/>
</svg>
