<?xml version="1.0" encoding="utf-8"?>
<!-- Generator: Adobe Illustrator 24.2.1, SVG Export Plug-In . SVG Version: 6.00 Build 0)  -->
<svg version="1.1" id="레이어_1" xmlns="http://www.w3.org/2000/svg" xmlns:xlink="http://www.w3.org/1999/xlink"
     width='80' height='80'
     viewBox="0 0 1366 768" style="enable-background:new 0 0 1366 768;" xml:space="preserve">
<style type="text/css">
	.st0{fill:#F25E5E;}
	.st1{fill:none;}
</style>
    <g>
	<g id="XMLID_10_">
		<g>
			<g>
				<path class="st0" d="M705.13,449.49c-0.83,0-1.66-0.19-2.44-0.6c-2.58-1.35-3.57-4.54-2.22-7.11c4.46-8.5,5.51-16.18,3.13-22.82
					c-3.92-10.92-15.98-16.09-16.1-16.14c-2.68-1.12-3.95-4.2-2.83-6.88c1.11-2.68,4.18-3.96,6.86-2.85
					c0.67,0.27,16.39,6.89,21.95,22.21c3.47,9.55,2.24,20.11-3.68,31.38C708.85,448.47,707.02,449.49,705.13,449.49z"/>
			</g>
		</g>
	</g>
        <g id="XMLID_9_">
		<g>
			<g>
				<path class="st0" d="M678.98,375.83c-1.47,0-2.9-0.62-3.91-1.74c-1.26-1.39-1.68-3.36-1.11-5.15
					c3.61-11.23,10.71-23.22,19.46-32.89c9.49-10.47,19.57-16.76,28.38-17.7c8.24-0.88,15.23,2.88,19.68,10.58
					c2.88,4.99,3.23,10.29,0.99,15.32c-3.91,8.79-15.46,16.52-35.31,23.64c-13.87,4.97-26.56,7.7-27.09,7.82
					C679.71,375.79,679.34,375.83,678.98,375.83z M724.13,328.77c-0.39,0-0.79,0.02-1.2,0.07c-11.12,1.19-26.73,16.9-35.2,34.17
					c18.25-4.96,41.02-13.79,45.12-23.03c0.86-1.93,0.71-3.71-0.48-5.77C730.24,330.52,727.6,328.77,724.13,328.77z"/>
			</g>
		</g>
	</g>
        <g>
		<path class="st0" d="M654.74,405.86c0.1,6.84-10.64,6.84-10.54,0C644.11,399.02,654.84,399.02,654.74,405.86z"/>
	</g>
        <g>
		<path class="st1" d="M612.07,441.16c0.47,0.01,0.9-0.04,1.31-0.13c5.49-1.2,5.06-10.5-1.31-10.41c-0.81-0.01-1.52,0.13-2.14,0.39
			C605.33,432.92,606.04,441.25,612.07,441.16z"/>
            <path class="st1" d="M631.03,434.31c6.84,0.1,6.84-10.64,0-10.54C624.2,423.67,624.2,434.41,631.03,434.31z"/>
            <path class="st0" d="M744.35,314.51c-2.59-1.33-5.76-0.31-7.09,2.28c-1.33,2.59-0.31,5.76,2.28,7.09
			c12.51,6.44,18.36,17.55,16.05,30.49c-2.25,12.59-13.04,26.38-29.29,28.35c-1.8,0.22-3.36,1.35-4.14,2.99
			c-0.77,1.64-0.64,3.57,0.34,5.09c14.18,21.96-3.56,38.05-9.33,42.46c-18.67,14.26-49.65,17.57-67.14-1.94
			c-0.29-0.32-0.61-0.6-0.95-0.83c-5.26,14.25-33.11,24.69-40.53,9.83c-5.2-10.38,5.48-21.32,17.35-25.49
			c2.59-3.23,5.39-6.63,8.25-10.12c24.51-29.86,41.69-52.2,39.41-67.9c-0.66-4.56-3.03-8.33-6.85-10.91
			c-0.81-0.55-1.76-0.86-2.74-0.9c-12.89-0.53-21.54,4.04-26.53,7.98c-6.53,5.15-10.76,12.4-11.59,19.89
			c-0.32,2.89,1.76,5.5,4.65,5.82c2.9,0.32,5.5-1.76,5.82-4.65c1.03-9.25,10.79-18.45,25.52-18.53c0.71,0.76,1.11,1.66,1.28,2.83
			c0.51,3.5-0.92,10.73-10.62,25.3c-7.39,11.1-17.55,23.48-26.51,34.39c-17.32,21.09-25.75,31.73-24.93,39.1
			c0.36,7.39,7.51,11.4,10.58,13.12c0.33,0.18,0.67,0.33,1.03,0.44c14.77,4.53,26.84-1.93,33.62-8.22
			c9.57,8.46,22.14,13.04,36.03,13.04c0.23,0,0.45,0,0.68,0c14.43-0.15,29.21-5.2,40.54-13.85c9.04-6.9,15.13-15.47,17.61-24.78
			c2.22-8.33,1.43-16.93-2.27-25.24c6.8-2.08,13.02-5.86,18.28-11.15c6.63-6.66,11.16-15.27,12.77-24.25
			C769.09,338.67,761.01,323.08,744.35,314.51z"/>
            <g>
			<path class="st0" d="M604.53,440.31c7.42,14.87,35.28,4.42,40.53-9.83c1.21-3.28,1.22-6.76-0.49-10.19
				c-3.94-7.9-13.66-8.65-22.69-5.48C610.01,418.99,599.34,429.93,604.53,440.31z M631.04,423.77c6.84-0.1,6.84,10.64,0,10.54
				C624.2,434.41,624.2,423.67,631.04,423.77z M612.07,430.62c6.37-0.09,6.8,9.21,1.31,10.41c-0.41,0.09-0.84,0.14-1.31,0.13
				c-6.03,0.09-6.74-8.24-2.14-10.15C610.55,430.75,611.26,430.61,612.07,430.62z"/>
		</g>
	</g>
</g>
<animateTransform
        attributeName='transform'
        attributeType='XML'
        type='rotate'
        from='0 12 14'
        to='360 12 14'
        dur='2s'
        repeatCount='indefinite'
/>
</svg>
