<?xml version="1.0" encoding="utf-8"?>


<svg id="ecau7burxyt1" xmlns="http://www.w3.org/2000/svg" xmlns:xlink="http://www.w3.org/1999/xlink" viewBox="0 0 169.500000 141.600000" shape-rendering="geometricPrecision" text-rendering="geometricPrecision">
<g id="ecau7burxyt2">
	<g id="ecau7burxyt3">
		<g id="ecau7burxyt4">
			<g id="ecau7burxyt5">
				<path id="ecau7burxyt6" d="M108.100000,135.600000C107.300000,135.600000,106.400000,135.400000,105.700000,135C103.100000,133.600000,102.100000,130.500000,103.500000,127.900000C108,119.400000,109,111.700000,106.600000,105.100000C102.700000,94.200000,90.600000,89,90.500000,89C87.800000,87.900000,86.500000,84.800000,87.700000,82.100000C88.800000,79.400000,91.900000,78.100000,94.600000,79.200000C95.300000,79.500000,111,86.100000,116.600000,101.400000C120.100000,110.900000,118.800000,121.500000,112.900000,132.800000C111.800000,134.500000,110,135.600000,108.100000,135.600000Z" transform="matrix(0.66937800461166 0 0 0.71918404922387 26.40202029167541 21.24384114910769)" fill="rgb(242,94,94)" stroke="none" stroke-width="1"/></g></g></g><g id="ecau7burxyt7"><g id="ecau7burxyt8"><g id="ecau7burxyt9"><path id="ecau7burxyt10" d="M82,61.900000C80.500000,61.900000,79.100000,61.300000,78.100000,60.200000C76.800000,58.800000,76.400000,56.800000,77,55.100000C80.600000,43.900000,87.700000,31.900000,96.500000,22.200000C106,11.700000,116.100000,5.400000,124.900000,4.500000C133,3.500000,140,7.300000,144.500000,15C147.400000,20,147.700000,25.300000,145.500000,30.300000C141.600000,39.100000,130,46.800000,110.200000,53.900000C96.300000,58.900000,83.600000,61.600000,83.100000,61.700000C82.700000,61.900000,82.300000,61.900000,82,61.900000ZM127.100000,14.800000C126.700000,14.800000,126.300000,14.800000,125.900000,14.900000C114.800000,16.100000,99.200000,31.800000,90.700000,49.100000C109,44.100000,131.700000,35.300000,135.800000,26.100000C136.700000,24.200000,136.500000,22.400000,135.300000,20.300000C133.200000,16.600000,130.600000,14.800000,127.100000,14.800000Z" transform="matrix(0.79173765285552 0 0 0.80850263356812 15.05837490867569 8.51087899046901)" fill="rgb(242,94,94)" stroke="none" stroke-width="1"/>
			</g>
		</g>
	</g>
	<g id="ecau7burxyt11">
		<path id="ecau7burxyt12" d="M57.700000,91.900000C57.800000,98.700000,47.100000,98.700000,47.200000,91.900000C47.100000,85.100000,57.800000,85.100000,57.700000,91.900000Z" transform="matrix(0.89646009152619 0 0 0.92957645532816 8.43066827844584 -1.49412160719997)" fill="rgb(242,94,94)" stroke="none" stroke-width="1"/>
	</g>
	<g id="ecau7burxyt13" transform="matrix(1 0 0 1 -0.02610382500001 0.06599875000001)">
		<g id="ecau7burxyt14">
			<path id="ecau7burxyt15" d="M15.100000,127.200000C15.600000,127.200000,16,127.200000,16.400000,127.100000C21.900000,125.900000,21.500000,116.600000,15.100000,116.700000C14.300000,116.700000,13.600000,116.800000,13,117.100000C8.300000,119,9,127.300000,15.100000,127.200000Z" fill="none" stroke="none" stroke-width="1"/>
			<path id="ecau7burxyt16" d="M34,120.400000C40.800000,120.500000,40.800000,109.800000,34,109.900000C27.200000,109.700000,27.200000,120.500000,34,120.400000Z" fill="none" stroke="none" stroke-width="1"/>
			<path id="ecau7burxyt17" d="M147.300000,0.600000C144.700000,-0.700000,141.500000,0.300000,140.200000,2.900000C138.900000,5.500000,139.900000,8.700000,142.500000,10C155,16.400000,160.900000,27.500000,158.500000,40.500000C156.200000,53.100000,145.500000,66.900000,129.200000,68.900000C127.400000,69.100000,125.800000,70.300000,125.100000,71.900000C124.300000,73.500000,124.500000,75.500000,125.400000,77C139.600000,99,121.800000,115,116.100000,119.500000C97.400000,133.800000,66.400000,137.100000,49,117.600000C48.700000,117.300000,48.400000,117,48,116.800000C42.700000,131.100000,14.900000,141.500000,7.500000,126.600000C2.300000,116,13,105.100000,24.900000,100.900000C27.500000,97.700000,30.300000,94.300000,33.100000,90.800000C57.600000,60.900000,74.800000,38.600000,72.500000,22.900000C71.800000,18.300000,69.500000,14.600000,65.700000,12C64.900000,11.500000,63.900000,11.100000,63,11.100000C50.100000,10.600000,41.500000,15.100000,36.500000,19.100000C30,24.200000,25.700000,31.500000,24.900000,39C24.600000,41.900000,26.700000,44.500000,29.600000,44.800000C32.500000,45.100000,35.100000,43,35.400000,40.200000C36.400000,30.900000,46.200000,21.700000,60.900000,21.700000C61.600000,22.500000,62,23.400000,62.200000,24.500000C62.700000,28,61.300000,35.200000,51.600000,49.800000C44.100000,60.800000,33.900000,73.200000,25,84.100000C7.700000,105.200000,-0.800000,115.800000,0.100000,123.200000C0.500000,130.600000,7.600000,134.600000,10.700000,136.300000C11,136.500000,11.400000,136.600000,11.700000,136.700000C26.500000,141.200000,38.500000,134.800000,45.300000,128.500000C54.900000,137,67.400000,141.500000,81.300000,141.500000C81.500000,141.500000,81.800000,141.500000,82,141.500000C96.400000,141.400000,111.200000,136.300000,122.500000,127.600000C131.500000,120.700000,137.600000,112.100000,140.100000,102.800000C142.300000,94.500000,141.500000,85.900000,137.800000,77.600000C144.600000,75.500000,150.800000,71.700000,156.100000,66.500000C162.700000,59.800000,167.300000,51.200000,168.900000,42.200000C172.100000,24.700000,164,9.200000,147.300000,0.600000Z" transform="matrix(0.78735220840210 0 0 0.84291086388011 15.05587126399038 7.92900875849782)" fill="rgb(242,94,94)" stroke="none" stroke-width="1"/>
			<g id="ecau7burxyt18">
				<path id="ecau7burxyt19" d="M7.500000,126.400000C14.900000,141.300000,42.800000,130.800000,48,116.600000C49.200000,113.300000,49.200000,109.800000,47.500000,106.400000C43.600000,98.500000,33.800000,97.800000,24.800000,100.900000C13,105.100000,2.300000,116,7.500000,126.400000ZM34,109.800000C40.800000,109.700000,40.800000,120.400000,34,120.300000C27.200000,120.500000,27.200000,109.700000,34,109.800000ZM15.100000,116.700000C21.500000,116.600000,21.900000,125.900000,16.400000,127.100000C16,127.200000,15.600000,127.200000,15.100000,127.200000C9.100000,127.300000,8.400000,119,13,117.100000C13.500000,116.800000,14.300000,116.700000,15.100000,116.700000Z" transform="matrix(0.83400837954148 0 0 0.85261088074537 12.70889282062060 7.47691968786474)" fill="rgb(242,94,94)" stroke="none" stroke-width="1"/>
			</g>
		</g>
	</g>
</g>
	<animateTransform attributeName='transform' attributeType='xml' type='rotate' from='0 0 0' to='360 0 0' dur='4s' repeatCount='indefinite' />
</svg>
