<?xml version="1.0" encoding="utf-8"?>
<!-- Generator: Adobe Illustrator 24.2.1, SVG Export Plug-In . SVG Version: 6.00 Build 0)  -->
<svg version="1.1" id="레이어_1" xmlns="http://www.w3.org/2000/svg" xmlns:xlink="http://www.w3.org/1999/xlink" viewBox="0 0 169.5 141.6" style="enable-background:new 0 0 169.5 141.6;" xml:space="preserve">
<style type="text/css">
	.st0{fill:#F25E5E;}
	.st1{fill:none;}
</style>
    <g>
	<g id="XMLID_10_">
		<g>
			<g>
				<path class="st0" d="M108.1,135.6c-0.8,0-1.7-0.2-2.4-0.6c-2.6-1.4-3.6-4.5-2.2-7.1c4.5-8.5,5.5-16.2,3.1-22.8
					c-3.9-10.9-16-16.1-16.1-16.1c-2.7-1.1-4-4.2-2.8-6.9c1.1-2.7,4.2-4,6.9-2.9c0.7,0.3,16.4,6.9,22,22.2
					c3.5,9.5,2.2,20.1-3.7,31.4C111.8,134.5,110,135.6,108.1,135.6z"/>
			</g>
		</g>
	</g>
        <g id="XMLID_9_">
		<g>
			<g>
				<path class="st0" d="M82,61.9c-1.5,0-2.9-0.6-3.9-1.7c-1.3-1.4-1.7-3.4-1.1-5.1c3.6-11.2,10.7-23.2,19.5-32.9
					c9.5-10.5,19.6-16.8,28.4-17.7C133,3.5,140,7.3,144.5,15c2.9,5,3.2,10.3,1,15.3c-3.9,8.8-15.5,16.5-35.3,23.6
					c-13.9,5-26.6,7.7-27.1,7.8C82.7,61.9,82.3,61.9,82,61.9z M127.1,14.8c-0.4,0-0.8,0-1.2,0.1c-11.1,1.2-26.7,16.9-35.2,34.2
					c18.3-5,41-13.8,45.1-23c0.9-1.9,0.7-3.7-0.5-5.8C133.2,16.6,130.6,14.8,127.1,14.8z"/>
			</g>
		</g>
	</g>
        <g>
		<path class="st0" d="M57.7,91.9c0.1,6.8-10.6,6.8-10.5,0C47.1,85.1,57.8,85.1,57.7,91.9z"/>
	</g>
        <g>
		<path class="st1" d="M15.1,127.2c0.5,0,0.9,0,1.3-0.1c5.5-1.2,5.1-10.5-1.3-10.4c-0.8,0-1.5,0.1-2.1,0.4
			C8.3,119,9,127.3,15.1,127.2z"/>
            <path class="st1" d="M34,120.4c6.8,0.1,6.8-10.6,0-10.5C27.2,109.7,27.2,120.5,34,120.4z"/>
            <path class="st0" d="M147.3,0.6c-2.6-1.3-5.8-0.3-7.1,2.3s-0.3,5.8,2.3,7.1c12.5,6.4,18.4,17.5,16,30.5
			c-2.3,12.6-13,26.4-29.3,28.4c-1.8,0.2-3.4,1.4-4.1,3c-0.8,1.6-0.6,3.6,0.3,5.1c14.2,22-3.6,38-9.3,42.5
			c-18.7,14.3-49.7,17.6-67.1-1.9c-0.3-0.3-0.6-0.6-1-0.8c-5.3,14.3-33.1,24.7-40.5,9.8C2.3,116,13,105.1,24.9,100.9
			c2.6-3.2,5.4-6.6,8.2-10.1c24.5-29.9,41.7-52.2,39.4-67.9c-0.7-4.6-3-8.3-6.8-10.9c-0.8-0.5-1.8-0.9-2.7-0.9
			c-12.9-0.5-21.5,4-26.5,8c-6.5,5.1-10.8,12.4-11.6,19.9c-0.3,2.9,1.8,5.5,4.7,5.8c2.9,0.3,5.5-1.8,5.8-4.6
			c1-9.3,10.8-18.5,25.5-18.5c0.7,0.8,1.1,1.7,1.3,2.8c0.5,3.5-0.9,10.7-10.6,25.3C44.1,60.8,33.9,73.2,25,84.1
			C7.7,105.2-0.8,115.8,0.1,123.2c0.4,7.4,7.5,11.4,10.6,13.1c0.3,0.2,0.7,0.3,1,0.4c14.8,4.5,26.8-1.9,33.6-8.2
			c9.6,8.5,22.1,13,36,13c0.2,0,0.5,0,0.7,0c14.4-0.1,29.2-5.2,40.5-13.9c9-6.9,15.1-15.5,17.6-24.8c2.2-8.3,1.4-16.9-2.3-25.2
			c6.8-2.1,13-5.9,18.3-11.1c6.6-6.7,11.2-15.3,12.8-24.3C172.1,24.7,164,9.2,147.3,0.6z"/>
            <g>
			<path class="st0" d="M7.5,126.4c7.4,14.9,35.3,4.4,40.5-9.8c1.2-3.3,1.2-6.8-0.5-10.2c-3.9-7.9-13.7-8.6-22.7-5.5
				C13,105.1,2.3,116,7.5,126.4z M34,109.8c6.8-0.1,6.8,10.6,0,10.5C27.2,120.5,27.2,109.7,34,109.8z M15.1,116.7
				c6.4-0.1,6.8,9.2,1.3,10.4c-0.4,0.1-0.8,0.1-1.3,0.1c-6,0.1-6.7-8.2-2.1-10.1C13.5,116.8,14.3,116.7,15.1,116.7z"/>
		</g>
	</g>
</g>
<animateTransform
		attributeName='transform'
		attributeType='XML'
		type='rotate'
		from='0 0 0'
		to='360 0 0'
		dur='4s'
		repeatCount='indefinite'
/>
</svg>
